<svg width="7" height="12" fill="none" xmlns="http://www.w3.org/2000/svg"><path d="M5.668 1.106l-.5.625.5-.625zm.125 1.125l-.625-.5.625.5zm-1.25-1l-.624-.5.624.5zm-1.6 2l.625.5-.625-.5zM1.353 5.22l.614.512a.773.773 0 00.01-.012l-.624-.5zm-.108.169l.723.343-.723-.343zm0 .687l.723-.343-.723.343zm.108.168l.625-.5a.864.864 0 00-.01-.013l-.615.513zm1.59 1.988l.625-.5-.625.5zm1.6 2l.625-.5-.625.5zm1.125.125l-.5-.625.5.625zm.125-1.125l-.625.5.625-.5zm-1.6-2l-.625.5.625-.5zm-1.2-1.5l-.625-.5a.8.8 0 000 1l.624-.5zm1.2-1.5l.624.5-.624-.5zm.975-2.5l1.25 1a1.6 1.6 0 00-.25-2.25l-1 1.25zm0 0l1-1.25a1.6 1.6 0 00-2.25.25l1.25 1zm-1.6 2l1.6-2-1.25-1-1.6 2 1.25 1zm-1.59 1.988l1.59-1.988-1.25-1L.729 4.72l1.25 1zm-.01.011v.001L.738 4.707c-.088.105-.16.22-.217.34l1.446.684zm0 .002L.523 5.043c-.21.44-.203.946 0 1.374l1.445-.686zm0-.002v.002l-1.445.686c.057.12.129.233.216.338L1.967 5.73zm1.6 2.001l-1.59-1.988-1.25 1 1.59 1.987 1.25-.999zm1.6 2l-1.6-2-1.25 1 1.6 2 1.25-1zm0 0l-1.25 1a1.6 1.6 0 002.25.25l-1-1.25zm0 0l1 1.25a1.6 1.6 0 00.25-2.25l-1.25 1zm-1.6-2l1.6 2 1.25-1-1.6-2-1.25 1zm-1.2-1.5l1.2 1.5 1.25-1-1.2-1.5-1.25 1zm1.2-2.5l-1.2 1.5 1.25 1 1.2-1.5-1.25-1zm1.6-2l-1.6 2 1.25 1 1.6-2-1.25-1z" fill="#D8D8D8"/></svg>